<svg width="152" height="24" viewBox="0 0 152 24" fill="none" xmlns="http://www.w3.org/2000/svg">
<path fill-rule="evenodd" clip-rule="evenodd" d="M0.530549 5.62795C0.29859 3.78205 1.87862 2.5 3.57554 2.5H7.1672C7.89213 2.5 8.51333 3.01844 8.64301 3.73167L9.24935 7.06653C9.43046 8.06268 9.17133 9.08845 8.53884 9.87906L7.81545 10.7833C7.68654 10.9444 7.67475 11.1581 7.77434 11.3205C8.2439 12.0862 9.08857 13.3797 9.85533 14.1464C10.6221 14.9132 11.9156 15.7579 12.6813 16.2274C12.8437 16.327 13.0573 16.3152 13.2185 16.1863L14.1227 15.4629C14.9133 14.8304 15.9391 14.5713 16.9352 14.7524L20.2701 15.3588C20.9833 15.4885 21.5018 16.1096 21.5018 16.8346V20.1816C21.5018 22.0032 20.0508 23.624 18.1171 23.313C14.8045 22.7803 10.0694 21.0768 6.13538 16.8402C2.31033 12.7209 0.893311 8.51475 0.530549 5.62795ZM3.57554 3.5C2.31103 3.5 1.38547 4.41084 1.52275 5.50326C1.86104 8.19537 3.19444 12.2034 6.86818 16.1598C10.6177 20.1977 15.1307 21.8199 18.2758 22.3257C19.4703 22.5178 20.5018 21.5285 20.5018 20.1816V16.8346C20.5018 16.5929 20.329 16.3859 20.0912 16.3426L16.7564 15.7363C16.0448 15.6069 15.3121 15.792 14.7474 16.2438L13.8432 16.9672C13.3653 17.3495 12.6937 17.4081 12.1585 17.0799C11.3953 16.6119 10.008 15.7133 9.14823 14.8536C8.28849 13.9938 7.3899 12.6064 6.92187 11.8433C6.59367 11.3081 6.65231 10.6364 7.03458 10.1586L7.75797 9.25437C8.20975 8.68964 8.39485 7.95695 8.26548 7.24541L7.65914 3.91056C7.61591 3.67281 7.40885 3.5 7.1672 3.5H3.57554Z" fill="#414141"/>
<path d="M37.088 17.16C36.256 17.16 35.5253 17.0267 34.896 16.76C34.2667 16.4827 33.776 16.088 33.424 15.576C33.072 15.064 32.896 14.4667 32.896 13.784C32.896 13.1547 33.0507 12.6053 33.36 12.136C33.6693 11.656 34.0907 11.288 34.624 11.032C34.1973 10.7867 33.8667 10.4667 33.632 10.072C33.408 9.66667 33.296 9.19733 33.296 8.664C33.296 7.72533 33.6373 6.98933 34.32 6.456C35.0133 5.912 35.936 5.64 37.088 5.64C38.2293 5.64 39.1413 5.912 39.824 6.456C40.5173 6.98933 40.864 7.72 40.864 8.648C40.864 9.18133 40.7467 9.65067 40.512 10.056C40.288 10.4507 39.968 10.776 39.552 11.032C40.0853 11.288 40.5067 11.656 40.816 12.136C41.1253 12.6053 41.28 13.1547 41.28 13.784C41.28 14.4667 41.104 15.064 40.752 15.576C40.4 16.088 39.904 16.4827 39.264 16.76C38.6347 17.0267 37.9093 17.16 37.088 17.16ZM37.088 10.456C37.728 10.4453 38.2667 10.28 38.704 9.96C39.1413 9.64 39.36 9.21867 39.36 8.696C39.36 8.16267 39.1413 7.736 38.704 7.416C38.2773 7.08533 37.7387 6.92 37.088 6.92C36.4267 6.92 35.8773 7.08 35.44 7.4C35.0133 7.72 34.8 8.152 34.8 8.696C34.8 9.22933 35.0133 9.656 35.44 9.976C35.8773 10.296 36.4267 10.456 37.088 10.456ZM37.088 15.88C37.8347 15.88 38.4587 15.688 38.96 15.304C39.4613 14.92 39.712 14.4133 39.712 13.784C39.712 13.1547 39.4613 12.6533 38.96 12.28C38.4587 11.9067 37.8347 11.72 37.088 11.72C36.3307 11.72 35.7013 11.9067 35.2 12.28C34.6987 12.6533 34.448 13.1547 34.448 13.784C34.448 14.4133 34.6987 14.92 35.2 15.304C35.7013 15.688 36.3307 15.88 37.088 15.88ZM51.1818 17.16C50.3498 17.16 49.6191 17.0267 48.9898 16.76C48.3604 16.4827 47.8698 16.088 47.5178 15.576C47.1658 15.064 46.9898 14.4667 46.9898 13.784C46.9898 13.1547 47.1444 12.6053 47.4538 12.136C47.7631 11.656 48.1844 11.288 48.7178 11.032C48.2911 10.7867 47.9604 10.4667 47.7258 10.072C47.5018 9.66667 47.3898 9.19733 47.3898 8.664C47.3898 7.72533 47.7311 6.98933 48.4138 6.456C49.1071 5.912 50.0298 5.64 51.1818 5.64C52.3231 5.64 53.2351 5.912 53.9178 6.456C54.6111 6.98933 54.9578 7.72 54.9578 8.648C54.9578 9.18133 54.8404 9.65067 54.6058 10.056C54.3818 10.4507 54.0618 10.776 53.6458 11.032C54.1791 11.288 54.6004 11.656 54.9097 12.136C55.2191 12.6053 55.3738 13.1547 55.3738 13.784C55.3738 14.4667 55.1978 15.064 54.8458 15.576C54.4938 16.088 53.9978 16.4827 53.3578 16.76C52.7284 17.0267 52.0031 17.16 51.1818 17.16ZM51.1818 10.456C51.8218 10.4453 52.3604 10.28 52.7978 9.96C53.2351 9.64 53.4538 9.21867 53.4538 8.696C53.4538 8.16267 53.2351 7.736 52.7978 7.416C52.3711 7.08533 51.8324 6.92 51.1818 6.92C50.5204 6.92 49.9711 7.08 49.5338 7.4C49.1071 7.72 48.8938 8.152 48.8938 8.696C48.8938 9.22933 49.1071 9.656 49.5338 9.976C49.9711 10.296 50.5204 10.456 51.1818 10.456ZM51.1818 15.88C51.9284 15.88 52.5524 15.688 53.0538 15.304C53.5551 14.92 53.8058 14.4133 53.8058 13.784C53.8058 13.1547 53.5551 12.6533 53.0538 12.28C52.5524 11.9067 51.9284 11.72 51.1818 11.72C50.4244 11.72 49.7951 11.9067 49.2938 12.28C48.7924 12.6533 48.5418 13.1547 48.5418 13.784C48.5418 14.4133 48.7924 14.92 49.2938 15.304C49.7951 15.688 50.4244 15.88 51.1818 15.88ZM61.3376 17.16C59.9616 17.16 58.9536 16.76 58.3136 15.96C57.6736 15.16 57.3323 14.1093 57.2896 12.808C57.279 12.52 57.2736 12.056 57.2736 11.416C57.2736 10.7547 57.279 10.2747 57.2896 9.976C57.3216 8.696 57.663 7.656 58.3136 6.856C58.9643 6.04533 59.9723 5.64 61.3376 5.64C62.7136 5.64 63.727 6.04533 64.3776 6.856C65.0283 7.656 65.3696 8.696 65.4016 9.976C65.423 10.5733 65.4336 11.0533 65.4336 11.416C65.4336 11.768 65.423 12.232 65.4016 12.808C65.359 14.1093 65.0176 15.16 64.3776 15.96C63.7376 16.76 62.7243 17.16 61.3376 17.16ZM61.3376 15.784C62.1376 15.784 62.7403 15.5173 63.1456 14.984C63.5616 14.4507 63.7803 13.6987 63.8016 12.728C63.823 12.1093 63.8336 11.6613 63.8336 11.384C63.8336 11.0853 63.823 10.648 63.8016 10.072C63.7803 9.112 63.567 8.36 63.1616 7.816C62.7563 7.272 62.1483 7 61.3376 7C60.5376 7 59.9296 7.272 59.5136 7.816C59.1083 8.36 58.895 9.112 58.8736 10.072L58.8576 11.384L58.8736 12.728C58.895 13.6987 59.1083 14.4507 59.5136 14.984C59.9296 15.5173 60.5376 15.784 61.3376 15.784ZM71.4939 17.16C70.1179 17.16 69.1099 16.76 68.4699 15.96C67.8299 15.16 67.4885 14.1093 67.4459 12.808C67.4352 12.52 67.4299 12.056 67.4299 11.416C67.4299 10.7547 67.4352 10.2747 67.4459 9.976C67.4779 8.696 67.8192 7.656 68.4699 6.856C69.1205 6.04533 70.1285 5.64 71.4939 5.64C72.8699 5.64 73.8832 6.04533 74.5339 6.856C75.1845 7.656 75.5259 8.696 75.5579 9.976C75.5792 10.5733 75.5899 11.0533 75.5899 11.416C75.5899 11.768 75.5792 12.232 75.5579 12.808C75.5152 14.1093 75.1739 15.16 74.5339 15.96C73.8939 16.76 72.8805 17.16 71.4939 17.16ZM71.4939 15.784C72.2939 15.784 72.8965 15.5173 73.3019 14.984C73.7179 14.4507 73.9365 13.6987 73.9579 12.728C73.9792 12.1093 73.9899 11.6613 73.9899 11.384C73.9899 11.0853 73.9792 10.648 73.9579 10.072C73.9365 9.112 73.7232 8.36 73.3179 7.816C72.9125 7.272 72.3045 7 71.4939 7C70.6939 7 70.0859 7.272 69.6699 7.816C69.2645 8.36 69.0512 9.112 69.0299 10.072L69.0139 11.384L69.0299 12.728C69.0512 13.6987 69.2645 14.4507 69.6699 14.984C70.0859 15.5173 70.6939 15.784 71.4939 15.784ZM82.884 17C82.788 17 82.708 16.968 82.644 16.904C82.5907 16.8293 82.564 16.744 82.564 16.648L82.596 16.504L86.58 7.192H81.332C81.2253 7.192 81.1347 7.16 81.06 7.096C80.996 7.02133 80.964 6.93067 80.964 6.824V6.184C80.964 6.06667 80.996 5.976 81.06 5.912C81.1347 5.83733 81.2253 5.8 81.332 5.8H87.892C88.0093 5.8 88.1 5.83733 88.164 5.912C88.2387 5.976 88.276 6.06667 88.276 6.184V6.776C88.276 6.968 88.2333 7.176 88.148 7.4L84.212 16.6C84.1587 16.7173 84.0947 16.8133 84.02 16.888C83.956 16.9627 83.8653 17 83.748 17H82.884ZM91.0871 17C90.9911 17 90.9111 16.968 90.8471 16.904C90.7938 16.8293 90.7671 16.744 90.7671 16.648L90.7991 16.504L94.7831 7.192H89.5351C89.4285 7.192 89.3378 7.16 89.2631 7.096C89.1991 7.02133 89.1671 6.93067 89.1671 6.824V6.184C89.1671 6.06667 89.1991 5.976 89.2631 5.912C89.3378 5.83733 89.4285 5.8 89.5351 5.8H96.0951C96.2125 5.8 96.3031 5.83733 96.3671 5.912C96.4418 5.976 96.4791 6.06667 96.4791 6.184V6.776C96.4791 6.968 96.4365 7.176 96.3511 7.4L92.4151 16.6C92.3618 16.7173 92.2978 16.8133 92.2231 16.888C92.1591 16.9627 92.0685 17 91.9511 17H91.0871ZM99.2903 17C99.1943 17 99.1143 16.968 99.0503 16.904C98.9969 16.8293 98.9703 16.744 98.9703 16.648L99.0023 16.504L102.986 7.192H97.7383C97.6316 7.192 97.5409 7.16 97.4663 7.096C97.4023 7.02133 97.3703 6.93067 97.3703 6.824V6.184C97.3703 6.06667 97.4023 5.976 97.4663 5.912C97.5409 5.83733 97.6316 5.8 97.7383 5.8H104.298C104.416 5.8 104.506 5.83733 104.57 5.912C104.645 5.976 104.682 6.06667 104.682 6.184V6.776C104.682 6.968 104.64 7.176 104.554 7.4L100.618 16.6C100.565 16.7173 100.501 16.8133 100.426 16.888C100.362 16.9627 100.272 17 100.154 17H99.2903ZM113.799 17.16C112.957 17.16 112.226 17.0267 111.607 16.76C110.999 16.4827 110.535 16.1253 110.215 15.688C109.906 15.2507 109.741 14.792 109.719 14.312C109.719 14.216 109.751 14.1413 109.815 14.088C109.879 14.024 109.959 13.992 110.055 13.992H110.839C111.063 13.992 111.213 14.1093 111.287 14.344C111.426 14.8773 111.725 15.256 112.183 15.48C112.642 15.6933 113.181 15.8 113.799 15.8C114.557 15.8 115.159 15.624 115.607 15.272C116.055 14.9093 116.279 14.392 116.279 13.72C116.279 12.4293 115.495 11.784 113.927 11.784H112.407C112.301 11.784 112.21 11.752 112.135 11.688C112.071 11.6133 112.039 11.5227 112.039 11.416V10.984C112.039 10.8347 112.098 10.6907 112.215 10.552L115.319 7.16H110.599C110.493 7.16 110.402 7.128 110.327 7.064C110.263 6.98933 110.231 6.89867 110.231 6.792V6.184C110.231 6.07733 110.263 5.98667 110.327 5.912C110.402 5.83733 110.493 5.8 110.599 5.8H116.983C117.101 5.8 117.191 5.83733 117.255 5.912C117.33 5.976 117.367 6.06667 117.367 6.184V6.76C117.367 6.888 117.309 7.01067 117.191 7.128L114.103 10.568L114.359 10.584C115.447 10.616 116.306 10.8987 116.935 11.432C117.565 11.9653 117.879 12.744 117.879 13.768C117.879 14.4613 117.703 15.064 117.351 15.576C116.999 16.088 116.514 16.4827 115.895 16.76C115.277 17.0267 114.578 17.16 113.799 17.16ZM123.409 17.16C122.566 17.16 121.835 17.0267 121.217 16.76C120.609 16.4827 120.145 16.1253 119.825 15.688C119.515 15.2507 119.35 14.792 119.329 14.312C119.329 14.216 119.361 14.1413 119.425 14.088C119.489 14.024 119.569 13.992 119.665 13.992H120.449C120.673 13.992 120.822 14.1093 120.897 14.344C121.035 14.8773 121.334 15.256 121.793 15.48C122.251 15.6933 122.79 15.8 123.409 15.8C124.166 15.8 124.769 15.624 125.217 15.272C125.665 14.9093 125.889 14.392 125.889 13.72C125.889 12.4293 125.105 11.784 123.537 11.784H122.017C121.91 11.784 121.819 11.752 121.745 11.688C121.681 11.6133 121.649 11.5227 121.649 11.416V10.984C121.649 10.8347 121.707 10.6907 121.825 10.552L124.929 7.16H120.209C120.102 7.16 120.011 7.128 119.937 7.064C119.873 6.98933 119.841 6.89867 119.841 6.792V6.184C119.841 6.07733 119.873 5.98667 119.937 5.912C120.011 5.83733 120.102 5.8 120.209 5.8H126.593C126.71 5.8 126.801 5.83733 126.865 5.912C126.939 5.976 126.977 6.06667 126.977 6.184V6.76C126.977 6.888 126.918 7.01067 126.801 7.128L123.713 10.568L123.969 10.584C125.057 10.616 125.915 10.8987 126.545 11.432C127.174 11.9653 127.489 12.744 127.489 13.768C127.489 14.4613 127.313 15.064 126.961 15.576C126.609 16.088 126.123 16.4827 125.505 16.76C124.886 17.0267 124.187 17.16 123.409 17.16ZM136.94 17.16C136.097 17.16 135.367 17.0267 134.748 16.76C134.14 16.4827 133.676 16.1253 133.356 15.688C133.047 15.2507 132.881 14.792 132.86 14.312C132.86 14.216 132.892 14.1413 132.956 14.088C133.02 14.024 133.1 13.992 133.196 13.992H133.98C134.204 13.992 134.353 14.1093 134.428 14.344C134.567 14.8773 134.865 15.256 135.324 15.48C135.783 15.6933 136.321 15.8 136.94 15.8C137.697 15.8 138.3 15.624 138.748 15.272C139.196 14.9093 139.42 14.392 139.42 13.72C139.42 12.4293 138.636 11.784 137.068 11.784H135.548C135.441 11.784 135.351 11.752 135.276 11.688C135.212 11.6133 135.18 11.5227 135.18 11.416V10.984C135.18 10.8347 135.239 10.6907 135.356 10.552L138.46 7.16H133.74C133.633 7.16 133.543 7.128 133.468 7.064C133.404 6.98933 133.372 6.89867 133.372 6.792V6.184C133.372 6.07733 133.404 5.98667 133.468 5.912C133.543 5.83733 133.633 5.8 133.74 5.8H140.124C140.241 5.8 140.332 5.83733 140.396 5.912C140.471 5.976 140.508 6.06667 140.508 6.184V6.76C140.508 6.888 140.449 7.01067 140.332 7.128L137.244 10.568L137.5 10.584C138.588 10.616 139.447 10.8987 140.076 11.432C140.705 11.9653 141.02 12.744 141.02 13.768C141.02 14.4613 140.844 15.064 140.492 15.576C140.14 16.088 139.655 16.4827 139.036 16.76C138.417 17.0267 137.719 17.16 136.94 17.16ZM146.549 17.16C145.707 17.16 144.976 17.0267 144.357 16.76C143.749 16.4827 143.285 16.1253 142.965 15.688C142.656 15.2507 142.491 14.792 142.469 14.312C142.469 14.216 142.501 14.1413 142.565 14.088C142.629 14.024 142.709 13.992 142.805 13.992H143.589C143.813 13.992 143.963 14.1093 144.037 14.344C144.176 14.8773 144.475 15.256 144.933 15.48C145.392 15.6933 145.931 15.8 146.549 15.8C147.307 15.8 147.909 15.624 148.357 15.272C148.805 14.9093 149.029 14.392 149.029 13.72C149.029 12.4293 148.245 11.784 146.677 11.784H145.157C145.051 11.784 144.96 11.752 144.885 11.688C144.821 11.6133 144.789 11.5227 144.789 11.416V10.984C144.789 10.8347 144.848 10.6907 144.965 10.552L148.069 7.16H143.349C143.243 7.16 143.152 7.128 143.077 7.064C143.013 6.98933 142.981 6.89867 142.981 6.792V6.184C142.981 6.07733 143.013 5.98667 143.077 5.912C143.152 5.83733 143.243 5.8 143.349 5.8H149.733C149.851 5.8 149.941 5.83733 150.005 5.912C150.08 5.976 150.117 6.06667 150.117 6.184V6.76C150.117 6.888 150.059 7.01067 149.941 7.128L146.853 10.568L147.109 10.584C148.197 10.616 149.056 10.8987 149.685 11.432C150.315 11.9653 150.629 12.744 150.629 13.768C150.629 14.4613 150.453 15.064 150.101 15.576C149.749 16.088 149.264 16.4827 148.645 16.76C148.027 17.0267 147.328 17.16 146.549 17.16Z" fill="#414141"/>
</svg>
